<svg xmlns="http://www.w3.org/2000/svg" version="1.1" xmlns:xlink="http://www.w3.org/1999/xlink" xmlns:svgjs="http://svgjs.dev/svgjs" width="2000" height="393" viewBox="0 0 2000 393"><g transform="matrix(1,0,0,1,-1.2121174924816387,-0.04342447511984915)"><svg viewBox="0 0 396 78" data-background-color="#ffffff" preserveAspectRatio="xMidYMid meet" height="393" width="2000" xmlns="http://www.w3.org/2000/svg" xmlns:xlink="http://www.w3.org/1999/xlink"><g id="tight-bounds" transform="matrix(1,0,0,1,0.23999928508817447,0.008618598115390341)"><svg viewBox="0 0 395.52 77.98276280376922" height="77.98276280376922" width="395.52"><g><svg viewBox="0 0 395.52 77.98276280376922" height="77.98276280376922" width="395.52"><g><svg viewBox="0 0 395.52 77.98276280376922" height="77.98276280376922" width="395.52"><g><svg viewBox="0 0 395.52 77.98276280376922" height="77.98276280376922" width="395.52"><g id="textblocktransform"><svg viewBox="0 0 395.52 77.98276280376922" height="77.98276280376922" width="395.52" id="textblock"><g><rect width="75.54432000000001" height="3.9172131298323367" y="63.878626061373566" fill="#ff0000" data-fill-palette-color="tertiary"></rect><rect width="75.54432000000001" height="3.9172131298323367" y="63.878626061373566" x="319.97567999999995" fill="#ff0000" data-fill-palette-color="tertiary"></rect></g><g><svg viewBox="0 0 395.52 43.437217815741306" height="43.437217815741306" width="395.52"><g transform="matrix(1,0,0,1,0,0)"><svg width="395.52" viewBox="0.45000001788139343 -35.5 327.7799987792969 36" height="43.437217815741306" data-palette-color="#ff0000"><path d="M7.65 0L1.5 0Q1.1 0 0.78-0.33 0.45-0.65 0.45-1.05L0.45-1.05Q0.45-1.3 0.5-1.5L0.5-1.5 12.25-33.6Q12.4-34.15 12.88-34.58 13.35-35 14.2-35L14.2-35 21.6-35Q22.45-35 22.93-34.58 23.4-34.15 23.55-33.6L23.55-33.6 35.25-1.5Q35.35-1.3 35.35-1.05L35.35-1.05Q35.35-0.65 35.02-0.33 34.7 0 34.25 0L34.25 0 28.1 0Q27.35 0 26.98-0.38 26.6-0.75 26.5-1.05L26.5-1.05 24.55-6.15 11.2-6.15 9.3-1.05Q9.2-0.75 8.85-0.38 8.5 0 7.65 0L7.65 0ZM17.9-26.55L13.25-13.35 22.55-13.35 17.9-26.55ZM54 0.5L54 0.5Q49.45 0.5 46.07-0.98 42.7-2.45 40.85-5.53 39-8.6 39-13.35L39-13.35 39-33.75Q39-34.3 39.35-34.65 39.7-35 40.25-35L40.25-35 46.7-35Q47.25-35 47.62-34.65 48-34.3 48-33.75L48-33.75 48-13.4Q48-10.15 49.55-8.53 51.1-6.9 53.95-6.9L53.95-6.9Q56.75-6.9 58.32-8.53 59.9-10.15 59.9-13.4L59.9-13.4 59.9-33.75Q59.9-34.3 60.27-34.65 60.65-35 61.15-35L61.15-35 67.65-35Q68.15-35 68.52-34.65 68.9-34.3 68.9-33.75L68.9-33.75 68.9-13.35Q68.9-8.6 67.05-5.53 65.2-2.45 61.85-0.98 58.5 0.5 54 0.5ZM91.1 0L84.5 0Q83.95 0 83.6-0.38 83.25-0.75 83.25-1.25L83.25-1.25 83.25-27.15 74.35-27.15Q73.8-27.15 73.45-27.53 73.1-27.9 73.1-28.4L73.1-28.4 73.1-33.75Q73.1-34.3 73.45-34.65 73.8-35 74.35-35L74.35-35 101.25-35Q101.8-35 102.15-34.65 102.5-34.3 102.5-33.75L102.5-33.75 102.5-28.4Q102.5-27.9 102.15-27.53 101.8-27.15 101.25-27.15L101.25-27.15 92.35-27.15 92.35-1.25Q92.35-0.75 92-0.38 91.65 0 91.1 0L91.1 0ZM121.34 0.5L121.34 0.5Q116.74 0.5 113.34-1 109.94-2.5 108.04-5.53 106.14-8.55 105.94-13.1L105.94-13.1Q105.89-15.25 105.89-17.43 105.89-19.6 105.94-21.75L105.94-21.75Q106.14-26.25 108.07-29.33 109.99-32.4 113.42-33.95 116.84-35.5 121.34-35.5L121.34-35.5Q125.89-35.5 129.29-33.95 132.69-32.4 134.64-29.33 136.59-26.25 136.74-21.75L136.74-21.75Q136.84-19.6 136.84-17.43 136.84-15.25 136.74-13.1L136.74-13.1Q136.59-8.55 134.67-5.53 132.74-2.5 129.34-1 125.94 0.5 121.34 0.5ZM121.34-6.7L121.34-6.7Q123.99-6.7 125.67-8.3 127.34-9.9 127.44-13.4L127.44-13.4Q127.54-15.6 127.54-17.55 127.54-19.5 127.44-21.6L127.44-21.6Q127.34-23.95 126.57-25.43 125.79-26.9 124.44-27.6 123.09-28.3 121.34-28.3L121.34-28.3Q119.64-28.3 118.29-27.6 116.94-26.9 116.14-25.43 115.34-23.95 115.24-21.6L115.24-21.6Q115.19-19.5 115.19-17.55 115.19-15.6 115.24-13.4L115.24-13.4Q115.39-9.9 117.07-8.3 118.74-6.7 121.34-6.7ZM149.89 0L143.89 0Q143.39 0 143.02-0.38 142.64-0.75 142.64-1.25L142.64-1.25 142.64-33.75Q142.64-34.3 143.02-34.65 143.39-35 143.89-35L143.89-35 149.29-35Q150.14-35 150.54-34.58 150.94-34.15 151.04-33.9L151.04-33.9 159.84-18.15 168.64-33.9Q168.79-34.15 169.17-34.58 169.54-35 170.39-35L170.39-35 175.74-35Q176.29-35 176.67-34.65 177.04-34.3 177.04-33.75L177.04-33.75 177.04-1.25Q177.04-0.75 176.67-0.38 176.29 0 175.74 0L175.74 0 169.79 0Q169.24 0 168.87-0.38 168.49-0.75 168.49-1.25L168.49-1.25 168.49-20 162.89-9.55Q162.64-9.1 162.24-8.75 161.84-8.4 161.14-8.4L161.14-8.4 158.54-8.4Q157.84-8.4 157.44-8.75 157.04-9.1 156.79-9.55L156.79-9.55 151.14-20 151.14-1.25Q151.14-0.75 150.79-0.38 150.44 0 149.89 0L149.89 0ZM198.34 0.5L198.34 0.5Q193.74 0.5 190.34-1 186.94-2.5 185.04-5.53 183.14-8.55 182.94-13.1L182.94-13.1Q182.89-15.25 182.89-17.43 182.89-19.6 182.94-21.75L182.94-21.75Q183.14-26.25 185.06-29.33 186.99-32.4 190.41-33.95 193.84-35.5 198.34-35.5L198.34-35.5Q202.89-35.5 206.29-33.95 209.69-32.4 211.64-29.33 213.59-26.25 213.74-21.75L213.74-21.75Q213.84-19.6 213.84-17.43 213.84-15.25 213.74-13.1L213.74-13.1Q213.59-8.55 211.66-5.53 209.74-2.5 206.34-1 202.94 0.5 198.34 0.5ZM198.34-6.7L198.34-6.7Q200.99-6.7 202.66-8.3 204.34-9.9 204.44-13.4L204.44-13.4Q204.54-15.6 204.54-17.55 204.54-19.5 204.44-21.6L204.44-21.6Q204.34-23.95 203.56-25.43 202.79-26.9 201.44-27.6 200.09-28.3 198.34-28.3L198.34-28.3Q196.64-28.3 195.29-27.6 193.94-26.9 193.14-25.43 192.34-23.95 192.24-21.6L192.24-21.6Q192.19-19.5 192.19-17.55 192.19-15.6 192.24-13.4L192.24-13.4Q192.39-9.9 194.06-8.3 195.74-6.7 198.34-6.7ZM235.19 0L228.59 0Q228.04 0 227.69-0.38 227.34-0.75 227.34-1.25L227.34-1.25 227.34-27.15 218.44-27.15Q217.89-27.15 217.54-27.53 217.19-27.9 217.19-28.4L217.19-28.4 217.19-33.75Q217.19-34.3 217.54-34.65 217.89-35 218.44-35L218.44-35 245.34-35Q245.89-35 246.24-34.65 246.59-34.3 246.59-33.75L246.59-33.75 246.59-28.4Q246.59-27.9 246.24-27.53 245.89-27.15 245.34-27.15L245.34-27.15 236.44-27.15 236.44-1.25Q236.44-0.75 236.09-0.38 235.74 0 235.19 0L235.19 0ZM259.08 0L252.38 0Q251.83 0 251.48-0.38 251.13-0.75 251.13-1.25L251.13-1.25 251.13-33.75Q251.13-34.3 251.48-34.65 251.83-35 252.38-35L252.38-35 259.08-35Q259.63-35 260.01-34.65 260.38-34.3 260.38-33.75L260.38-33.75 260.38-1.25Q260.38-0.75 260.01-0.38 259.63 0 259.08 0L259.08 0ZM284.98 0L277.33 0Q276.48 0 275.98-0.45 275.48-0.9 275.28-1.5L275.28-1.5 265.08-33.5Q264.98-33.75 264.98-33.95L264.98-33.95Q264.98-34.35 265.31-34.68 265.63-35 266.08-35L266.08-35 272.28-35Q273.08-35 273.53-34.55 273.98-34.1 274.08-33.7L274.08-33.7 281.18-10.6 288.23-33.7Q288.38-34.1 288.81-34.55 289.23-35 290.03-35L290.03-35 296.28-35Q296.68-35 297.01-34.68 297.33-34.35 297.33-33.95L297.33-33.95Q297.33-33.75 297.23-33.5L297.23-33.5 287.03-1.5Q286.88-0.9 286.38-0.45 285.88 0 284.98 0L284.98 0ZM326.98 0L303.23 0Q302.68 0 302.33-0.38 301.98-0.75 301.98-1.25L301.98-1.25 301.98-33.75Q301.98-34.3 302.33-34.65 302.68-35 303.23-35L303.23-35 326.58-35Q327.13-35 327.48-34.65 327.83-34.3 327.83-33.75L327.83-33.75 327.83-29.05Q327.83-28.5 327.48-28.15 327.13-27.8 326.58-27.8L326.58-27.8 310.63-27.8 310.63-21.05 325.48-21.05Q326.03-21.05 326.38-20.68 326.73-20.3 326.73-19.75L326.73-19.75 326.73-15.4Q326.73-14.9 326.38-14.53 326.03-14.15 325.48-14.15L325.48-14.15 310.63-14.15 310.63-7.2 326.98-7.2Q327.53-7.2 327.88-6.85 328.23-6.5 328.23-5.95L328.23-5.95 328.23-1.25Q328.23-0.75 327.88-0.38 327.53 0 326.98 0L326.98 0Z" opacity="1" transform="matrix(1,0,0,1,0,0)" fill="#ff0000" class="undefined-text-0" data-fill-palette-color="primary" id="text-0"></path></svg></g></svg></g><g transform="matrix(1,0,0,1,75.54432000000001,53.69170244881025)"><svg viewBox="0 0 244.43135999999996 24.291060354958976" height="24.291060354958976" width="244.43135999999996"><g transform="matrix(1,0,0,1,8,0)"><svg width="228.43135999999996" viewBox="4.949999809265137 -35 335.2200012207031 35.650001525878906" height="24.291060354958976" data-palette-color="#ff0000"><path d="M22.9-19.8L22.9-18.3 8.05-18.3 23.35-33.5 6.45-33.5 6.45 0 4.95 0 4.95-35 27-35 11.7-19.8 22.9-19.8ZM32.25 0L32.25-29 33.75-29 33.75 0 32.25 0ZM58.55-29L50.85-15.65 59.85 0 58.1 0 49.95-14.1 41.8 0 40.05 0 49.05-15.65 41.35-29 43.1-29 49.95-17.15 56.8-29 58.55-29ZM77.14-29L99.64-29 99.64-27.5 89.14-27.5 89.14 0 87.64 0 87.64-27.5 77.14-27.5 77.14-29ZM123.39-29L123.39 0 121.89 0 121.89-14.5 106.89-14.5 106.89 0 105.39 0 105.39-29 106.89-29 106.89-16 121.89-16 121.89-29 123.39-29ZM151.19-3.95L152.29-2.95Q149.54 0.5 143.29 0.5 137.04 0.5 134.34-3.05 131.64-6.6 131.64-14.5 131.64-22.4 134.34-25.95 137.04-29.5 143.29-29.5L143.29-29.5Q150.54-29.5 153.14-24.75L153.14-24.75 140.89-14.5 138.54-14.5 151.19-25.05Q148.99-28 143.29-28L143.29-28Q140.79-28 139.09-27.48 137.39-26.95 135.96-25.53 134.54-24.1 133.84-21.38 133.14-18.65 133.14-14.5 133.14-10.35 133.84-7.63 134.54-4.9 135.96-3.48 137.39-2.05 139.09-1.53 140.79-1 143.29-1L143.29-1Q148.99-1 151.19-3.95L151.19-3.95ZM171.18-29L172.78-29 183.68-3.35 191.23-21.1 198.73-3.35 208.98-27.5 176.73-27.5 176.73-29 211.23-29 198.73 0.5 191.23-17.25 183.68 0.5 171.18-29ZM234.88-29L234.88 0 233.38 0 233.38-14.5 218.38-14.5 218.38 0 216.88 0 216.88-29 218.38-29 218.38-16 233.38-16 233.38-29 234.88-29ZM262.68-3.95L263.78-2.95Q261.03 0.5 254.78 0.5 248.53 0.5 245.83-3.05 243.13-6.6 243.13-14.5 243.13-22.4 245.83-25.95 248.53-29.5 254.78-29.5L254.78-29.5Q262.03-29.5 264.63-24.75L264.63-24.75 252.38-14.5 250.03-14.5 262.68-25.05Q260.48-28 254.78-28L254.78-28Q252.28-28 250.58-27.48 248.88-26.95 247.45-25.53 246.03-24.1 245.33-21.38 244.63-18.65 244.63-14.5 244.63-10.35 245.33-7.63 246.03-4.9 247.45-3.48 248.88-2.05 250.58-1.53 252.28-1 254.78-1L254.78-1Q260.48-1 262.68-3.95L262.68-3.95ZM290.07-3.95L291.17-2.95Q288.42 0.5 282.17 0.5 275.92 0.5 273.22-3.05 270.52-6.6 270.52-14.5 270.52-22.4 273.22-25.95 275.92-29.5 282.17-29.5L282.17-29.5Q289.42-29.5 292.02-24.75L292.02-24.75 279.77-14.5 277.42-14.5 290.07-25.05Q287.87-28 282.17-28L282.17-28Q279.67-28 277.97-27.48 276.27-26.95 274.85-25.53 273.42-24.1 272.72-21.38 272.02-18.65 272.02-14.5 272.02-10.35 272.72-7.63 273.42-4.9 274.85-3.48 276.27-2.05 277.97-1.53 279.67-1 282.17-1L282.17-1Q287.87-1 290.07-3.95L290.07-3.95ZM300.67-1.5L315.87-1.5 315.87 0 299.17 0 299.17-29 300.67-29 300.67-1.5ZM329.27-29.6L329.27-29.6Q335.47-29.6 338.07-26.85L338.07-26.85 337.07-25.75Q334.67-28.1 329.47-28.1L329.47-28.1Q321.67-28.1 321.67-21.9L321.67-21.9Q321.67-19.5 323.57-18.07 325.47-16.65 328.19-15.9 330.92-15.15 333.64-14.33 336.37-13.5 338.27-11.68 340.17-9.85 340.17-6.9L340.17-6.9Q340.17-3.45 337.32-1.4 334.47 0.65 329.07 0.65L329.07 0.65Q326.42 0.65 323.84-0.05 321.27-0.75 320.02-2.1L320.02-2.1 321.02-3.2Q323.57-0.85 328.87-0.85L328.87-0.85Q333.72-0.85 336.19-2.65 338.67-4.45 338.67-6.85L338.67-6.85Q338.67-9.35 336.77-10.9 334.87-12.45 332.14-13.23 329.42-14 326.69-14.83 323.97-15.65 322.07-17.4 320.17-19.15 320.17-22L320.17-22Q320.17-25.85 322.74-27.73 325.32-29.6 329.27-29.6Z" opacity="1" transform="matrix(1,0,0,1,0,0)" fill="#ff0000" class="undefined-text-1" data-fill-palette-color="secondary" id="text-1"></path></svg></g></svg></g></svg></g></svg></g><g></g></svg></g></svg></g><defs></defs></svg><rect width="395.52" height="77.98276280376922" fill="none" stroke="none" visibility="hidden"></rect></g></svg></g></svg>